# xmcd
#
# Track frame offsets:
#	150
#	19385
#	34014
#	55385
#	75156
#	91897
#	107902
#	136645
#	152148
#	176311
#
# Disc length: 2682 seconds
#
# Revision: 1
# Processed by: cddbd v1.5.2PL0 Copyright (c) Steve Scherf et al.
# Submitted via: audiograbber 1.83.01
#
DISCID=6e0a780a
DTITLE=Sugarland - Live On The Insight
DYEAR=2009
DGENRE=Country
TTITLE0=Love - Live in Lexington, KY
TTITLE1=Circle - Live in Red Deer, Alberta, Canada
TTITLE2=Better Man - Live in Austin, TX
TTITLE3=Sex On Fire - Live in Minneapolis, MN
TTITLE4=All I Want To Do - Live in Lexington, KY
TTITLE5=Irreplaceable - Live in Atlanta, GA
TTITLE6=NightswimmingJoey - Live in Lexington, KY
TTITLE7=The One I Love - Live in Lexington, KY
TTITLE8=Love Shack - Live in Minneapolis, MN
TTITLE9=Stay - Live in Lexington, KY
EXTD=
EXTT0=
EXTT1=
EXTT2=
EXTT3=
EXTT4=
EXTT5=
EXTT6=
EXTT7=
EXTT8=
EXTT9=
PLAYORDER=
